<svg xmlns="http://www.w3.org/2000/svg" viewBox="0 0 120 160" width="120" height="160"><g fill="none" stroke="#FFFFFF" stroke-width="1.2" stroke-linejoin="round" stroke-linecap="round"><path d="M60 156 C58 120 62 96 60 70"/><path d="M60 118 C44 110 34 112 26 120 C38 124 50 124 60 118"/><path d="M60 100 C74 92 86 94 94 102 C82 106 70 106 60 100"/><path d="M60 70 C48 70 40 62 40 52 C46 56 50 56 52 50 C54 56 58 56 60 48 C62 56 66 56 68 50 C70 56 74 56 80 52 C80 62 72 70 60 70 Z"/><path d="M40 52 C36 40 40 28 48 22 C48 32 52 36 54 36"/><path d="M80 52 C84 40 80 28 72 22 C72 32 68 36 66 36"/><path d="M54 36 C54 26 56 18 60 12 C64 18 66 26 66 36"/><path d="M60 12 L60 4"/></g></svg>
