<svg xmlns="http://www.w3.org/2000/svg" viewBox="0 0 100 100" width="100" height="100"><g fill="none" stroke="#FFFFFF" stroke-width="1.6" stroke-linejoin="round" stroke-linecap="round"><circle cx="38" cy="22" r="5"/><circle cx="62" cy="22" r="5"/><path d="M33 22 L27 24 L33 26"/><path d="M67 22 L73 24 L67 26"/><path d="M40 27 Q44 34 47 40"/><path d="M60 27 Q56 34 53 40"/><path d="M50 38 L58 52 L50 72 L42 52 Z"/><path d="M43 46 L14 30 L20 42 L11 46 L22 52 L15 58 L43 58"/><path d="M57 46 L86 30 L80 42 L89 46 L78 52 L85 58 L57 58"/><path d="M45 70 L38 86 L50 80 L62 86 L55 70"/></g></svg>
