<svg xmlns="http://www.w3.org/2000/svg" viewBox="0 0 100 100" width="100" height="100"><g fill="none" stroke="#FFFFFF" stroke-width="1.6" stroke-linejoin="round" stroke-linecap="round"><circle cx="50" cy="50" r="38"/><line x1="88" y1="50" x2="93" y2="50"/><line x1="82.91" y1="69" x2="87.24" y2="71.5"/><line x1="69" y1="82.91" x2="71.5" y2="87.24"/><line x1="50" y1="88" x2="50" y2="93"/><line x1="31" y1="82.91" x2="28.5" y2="87.24"/><line x1="17.09" y1="69" x2="12.76" y2="71.5"/><line x1="12" y1="50" x2="7" y2="50"/><line x1="17.09" y1="31" x2="12.76" y2="28.5"/><line x1="31" y1="17.09" x2="28.5" y2="12.76"/><line x1="50" y1="12" x2="50" y2="7"/><line x1="69" y1="17.09" x2="71.5" y2="12.76"/><line x1="82.91" y1="31" x2="87.24" y2="28.5"/><polygon points="50,16 53.44,41.69 64.14,35.86 58.31,46.56 84,50 58.31,53.44 64.14,64.14 53.44,58.31 50,84 46.56,58.31 35.86,64.14 41.69,53.44 16,50 41.69,46.56 35.86,35.86 46.56,41.69"/><circle cx="50" cy="50" r="4"/></g></svg>
