<svg xmlns="http://www.w3.org/2000/svg" viewBox="0 0 360 720" width="360" height="720"><g fill="none" stroke="#FFFFFF" stroke-width="1" stroke-linejoin="round" stroke-linecap="round"><polygon points="9.95,-24.02 9.95,24.02 -24.02,-9.95 24.02,-9.95 -9.95,24.02 -9.95,-24.02 24.02,9.95 -24.02,9.95"/><polygon points="4.21,-10.16 10.16,-4.21 10.16,4.21 4.21,10.16 -4.21,10.16 -10.16,4.21 -10.16,-4.21 -4.21,-10.16"/><line x1="26" y1="0" x2="34" y2="0"/><line x1="0" y1="26" x2="0" y2="34"/><polygon points="36.36,36.36 23.64,36.36 23.64,23.64 36.36,23.64"/><polygon points="69.95,-24.02 69.95,24.02 35.98,-9.95 84.02,-9.95 50.05,24.02 50.05,-24.02 84.02,9.95 35.98,9.95"/><polygon points="64.21,-10.16 70.16,-4.21 70.16,4.21 64.21,10.16 55.79,10.16 49.84,4.21 49.84,-4.21 55.79,-10.16"/><line x1="86" y1="0" x2="94" y2="0"/><line x1="60" y1="26" x2="60" y2="34"/><polygon points="96.36,36.36 83.64,36.36 83.64,23.64 96.36,23.64"/><polygon points="129.95,-24.02 129.95,24.02 95.98,-9.95 144.02,-9.95 110.05,24.02 110.05,-24.02 144.02,9.95 95.98,9.95"/><polygon points="124.21,-10.16 130.16,-4.21 130.16,4.21 124.21,10.16 115.79,10.16 109.84,4.21 109.84,-4.21 115.79,-10.16"/><line x1="146" y1="0" x2="154" y2="0"/><line x1="120" y1="26" x2="120" y2="34"/><polygon points="156.36,36.36 143.64,36.36 143.64,23.64 156.36,23.64"/><polygon points="189.95,-24.02 189.95,24.02 155.98,-9.95 204.02,-9.95 170.05,24.02 170.05,-24.02 204.02,9.95 155.98,9.95"/><polygon points="184.21,-10.16 190.16,-4.21 190.16,4.21 184.21,10.16 175.79,10.16 169.84,4.21 169.84,-4.21 175.79,-10.16"/><line x1="206" y1="0" x2="214" y2="0"/><line x1="180" y1="26" x2="180" y2="34"/><polygon points="216.36,36.36 203.64,36.36 203.64,23.64 216.36,23.64"/><polygon points="249.95,-24.02 249.95,24.02 215.98,-9.95 264.02,-9.95 230.05,24.02 230.05,-24.02 264.02,9.95 215.98,9.95"/><polygon points="244.21,-10.16 250.16,-4.21 250.16,4.21 244.21,10.16 235.79,10.16 229.84,4.21 229.84,-4.21 235.79,-10.16"/><line x1="266" y1="0" x2="274" y2="0"/><line x1="240" y1="26" x2="240" y2="34"/><polygon points="276.36,36.36 263.64,36.36 263.64,23.64 276.36,23.64"/><polygon points="309.95,-24.02 309.95,24.02 275.98,-9.95 324.02,-9.95 290.05,24.02 290.05,-24.02 324.02,9.95 275.98,9.95"/><polygon points="304.21,-10.16 310.16,-4.21 310.16,4.21 304.21,10.16 295.79,10.16 289.84,4.21 289.84,-4.21 295.79,-10.16"/><line x1="326" y1="0" x2="334" y2="0"/><line x1="300" y1="26" x2="300" y2="34"/><polygon points="336.36,36.36 323.64,36.36 323.64,23.64 336.36,23.64"/><polygon points="369.95,-24.02 369.95,24.02 335.98,-9.95 384.02,-9.95 350.05,24.02 350.05,-24.02 384.02,9.95 335.98,9.95"/><polygon points="364.21,-10.16 370.16,-4.21 370.16,4.21 364.21,10.16 355.79,10.16 349.84,4.21 349.84,-4.21 355.79,-10.16"/><line x1="386" y1="0" x2="394" y2="0"/><line x1="360" y1="26" x2="360" y2="34"/><polygon points="396.36,36.36 383.64,36.36 383.64,23.64 396.36,23.64"/><polygon points="9.95,35.98 9.95,84.02 -24.02,50.05 24.02,50.05 -9.95,84.02 -9.95,35.98 24.02,69.95 -24.02,69.95"/><polygon points="4.21,49.84 10.16,55.79 10.16,64.21 4.21,70.16 -4.21,70.16 -10.16,64.21 -10.16,55.79 -4.21,49.84"/><line x1="26" y1="60" x2="34" y2="60"/><line x1="0" y1="86" x2="0" y2="94"/><polygon points="36.36,96.36 23.64,96.36 23.64,83.64 36.36,83.64"/><polygon points="69.95,35.98 69.95,84.02 35.98,50.05 84.02,50.05 50.05,84.02 50.05,35.98 84.02,69.95 35.98,69.95"/><polygon points="64.21,49.84 70.16,55.79 70.16,64.21 64.21,70.16 55.79,70.16 49.84,64.21 49.84,55.79 55.79,49.84"/><line x1="86" y1="60" x2="94" y2="60"/><line x1="60" y1="86" x2="60" y2="94"/><polygon points="96.36,96.36 83.64,96.36 83.64,83.64 96.36,83.64"/><polygon points="129.95,35.98 129.95,84.02 95.98,50.05 144.02,50.05 110.05,84.02 110.05,35.98 144.02,69.95 95.98,69.95"/><polygon points="124.21,49.84 130.16,55.79 130.16,64.21 124.21,70.16 115.79,70.16 109.84,64.21 109.84,55.79 115.79,49.84"/><line x1="146" y1="60" x2="154" y2="60"/><line x1="120" y1="86" x2="120" y2="94"/><polygon points="156.36,96.36 143.64,96.36 143.64,83.64 156.36,83.64"/><polygon points="189.95,35.98 189.95,84.02 155.98,50.05 204.02,50.05 170.05,84.02 170.05,35.98 204.02,69.95 155.98,69.95"/><polygon points="184.21,49.84 190.16,55.79 190.16,64.21 184.21,70.16 175.79,70.16 169.84,64.21 169.84,55.79 175.79,49.84"/><line x1="206" y1="60" x2="214" y2="60"/><line x1="180" y1="86" x2="180" y2="94"/><polygon points="216.36,96.36 203.64,96.36 203.64,83.64 216.36,83.64"/><polygon points="249.95,35.98 249.95,84.02 215.98,50.05 264.02,50.05 230.05,84.02 230.05,35.98 264.02,69.95 215.98,69.95"/><polygon points="244.21,49.84 250.16,55.79 250.16,64.21 244.21,70.16 235.79,70.16 229.84,64.21 229.84,55.79 235.79,49.84"/><line x1="266" y1="60" x2="274" y2="60"/><line x1="240" y1="86" x2="240" y2="94"/><polygon points="276.36,96.36 263.64,96.36 263.64,83.64 276.36,83.64"/><polygon points="309.95,35.98 309.95,84.02 275.98,50.05 324.02,50.05 290.05,84.02 290.05,35.98 324.02,69.95 275.98,69.95"/><polygon points="304.21,49.84 310.16,55.79 310.16,64.21 304.21,70.16 295.79,70.16 289.84,64.21 289.84,55.79 295.79,49.84"/><line x1="326" y1="60" x2="334" y2="60"/><line x1="300" y1="86" x2="300" y2="94"/><polygon points="336.36,96.36 323.64,96.36 323.64,83.64 336.36,83.64"/><polygon points="369.95,35.98 369.95,84.02 335.98,50.05 384.02,50.05 350.05,84.02 350.05,35.98 384.02,69.95 335.98,69.95"/><polygon points="364.21,49.84 370.16,55.79 370.16,64.21 364.21,70.16 355.79,70.16 349.84,64.21 349.84,55.79 355.79,49.84"/><line x1="386" y1="60" x2="394" y2="60"/><line x1="360" y1="86" x2="360" y2="94"/><polygon points="396.36,96.36 383.64,96.36 383.64,83.64 396.36,83.64"/><polygon points="9.95,95.98 9.95,144.02 -24.02,110.05 24.02,110.05 -9.95,144.02 -9.95,95.98 24.02,129.95 -24.02,129.95"/><polygon points="4.21,109.84 10.16,115.79 10.16,124.21 4.21,130.16 -4.21,130.16 -10.16,124.21 -10.16,115.79 -4.21,109.84"/><line x1="26" y1="120" x2="34" y2="120"/><line x1="0" y1="146" x2="0" y2="154"/><polygon points="36.36,156.36 23.64,156.36 23.64,143.64 36.36,143.64"/><polygon points="69.95,95.98 69.95,144.02 35.98,110.05 84.02,110.05 50.05,144.02 50.05,95.98 84.02,129.95 35.98,129.95"/><polygon points="64.21,109.84 70.16,115.79 70.16,124.21 64.21,130.16 55.79,130.16 49.84,124.21 49.84,115.79 55.79,109.84"/><line x1="86" y1="120" x2="94" y2="120"/><line x1="60" y1="146" x2="60" y2="154"/><polygon points="96.36,156.36 83.64,156.36 83.64,143.64 96.36,143.64"/><polygon points="129.95,95.98 129.95,144.02 95.98,110.05 144.02,110.05 110.05,144.02 110.05,95.98 144.02,129.95 95.98,129.95"/><polygon points="124.21,109.84 130.16,115.79 130.16,124.21 124.21,130.16 115.79,130.16 109.84,124.21 109.84,115.79 115.79,109.84"/><line x1="146" y1="120" x2="154" y2="120"/><line x1="120" y1="146" x2="120" y2="154"/><polygon points="156.36,156.36 143.64,156.36 143.64,143.64 156.36,143.64"/><polygon points="189.95,95.98 189.95,144.02 155.98,110.05 204.02,110.05 170.05,144.02 170.05,95.98 204.02,129.95 155.98,129.95"/><polygon points="184.21,109.84 190.16,115.79 190.16,124.21 184.21,130.16 175.79,130.16 169.84,124.21 169.84,115.79 175.79,109.84"/><line x1="206" y1="120" x2="214" y2="120"/><line x1="180" y1="146" x2="180" y2="154"/><polygon points="216.36,156.36 203.64,156.36 203.64,143.64 216.36,143.64"/><polygon points="249.95,95.98 249.95,144.02 215.98,110.05 264.02,110.05 230.05,144.02 230.05,95.98 264.02,129.95 215.98,129.95"/><polygon points="244.21,109.84 250.16,115.79 250.16,124.21 244.21,130.16 235.79,130.16 229.84,124.21 229.84,115.79 235.79,109.84"/><line x1="266" y1="120" x2="274" y2="120"/><line x1="240" y1="146" x2="240" y2="154"/><polygon points="276.36,156.36 263.64,156.36 263.64,143.64 276.36,143.64"/><polygon points="309.95,95.98 309.95,144.02 275.98,110.05 324.02,110.05 290.05,144.02 290.05,95.98 324.02,129.95 275.98,129.95"/><polygon points="304.21,109.84 310.16,115.79 310.16,124.21 304.21,130.16 295.79,130.16 289.84,124.21 289.84,115.79 295.79,109.84"/><line x1="326" y1="120" x2="334" y2="120"/><line x1="300" y1="146" x2="300" y2="154"/><polygon points="336.36,156.36 323.64,156.36 323.64,143.64 336.36,143.64"/><polygon points="369.95,95.98 369.95,144.02 335.98,110.05 384.02,110.05 350.05,144.02 350.05,95.98 384.02,129.95 335.98,129.95"/><polygon points="364.21,109.84 370.16,115.79 370.16,124.21 364.21,130.16 355.79,130.16 349.84,124.21 349.84,115.79 355.79,109.84"/><line x1="386" y1="120" x2="394" y2="120"/><line x1="360" y1="146" x2="360" y2="154"/><polygon points="396.36,156.36 383.64,156.36 383.64,143.64 396.36,143.64"/><polygon points="9.95,155.98 9.95,204.02 -24.02,170.05 24.02,170.05 -9.95,204.02 -9.95,155.98 24.02,189.95 -24.02,189.95"/><polygon points="4.21,169.84 10.16,175.79 10.16,184.21 4.21,190.16 -4.21,190.16 -10.16,184.21 -10.16,175.79 -4.21,169.84"/><line x1="26" y1="180" x2="34" y2="180"/><line x1="0" y1="206" x2="0" y2="214"/><polygon points="36.36,216.36 23.64,216.36 23.64,203.64 36.36,203.64"/><polygon points="69.95,155.98 69.95,204.02 35.98,170.05 84.02,170.05 50.05,204.02 50.05,155.98 84.02,189.95 35.98,189.95"/><polygon points="64.21,169.84 70.16,175.79 70.16,184.21 64.21,190.16 55.79,190.16 49.84,184.21 49.84,175.79 55.79,169.84"/><line x1="86" y1="180" x2="94" y2="180"/><line x1="60" y1="206" x2="60" y2="214"/><polygon points="96.36,216.36 83.64,216.36 83.64,203.64 96.36,203.64"/><polygon points="129.95,155.98 129.95,204.02 95.98,170.05 144.02,170.05 110.05,204.02 110.05,155.98 144.02,189.95 95.98,189.95"/><polygon points="124.21,169.84 130.16,175.79 130.16,184.21 124.21,190.16 115.79,190.16 109.84,184.21 109.84,175.79 115.79,169.84"/><line x1="146" y1="180" x2="154" y2="180"/><line x1="120" y1="206" x2="120" y2="214"/><polygon points="156.36,216.36 143.64,216.36 143.64,203.64 156.36,203.64"/><polygon points="189.95,155.98 189.95,204.02 155.98,170.05 204.02,170.05 170.05,204.02 170.05,155.98 204.02,189.95 155.98,189.95"/><polygon points="184.21,169.84 190.16,175.79 190.16,184.21 184.21,190.16 175.79,190.16 169.84,184.21 169.84,175.79 175.79,169.84"/><line x1="206" y1="180" x2="214" y2="180"/><line x1="180" y1="206" x2="180" y2="214"/><polygon points="216.36,216.36 203.64,216.36 203.64,203.64 216.36,203.64"/><polygon points="249.95,155.98 249.95,204.02 215.98,170.05 264.02,170.05 230.05,204.02 230.05,155.98 264.02,189.95 215.98,189.95"/><polygon points="244.21,169.84 250.16,175.79 250.16,184.21 244.21,190.16 235.79,190.16 229.84,184.21 229.84,175.79 235.79,169.84"/><line x1="266" y1="180" x2="274" y2="180"/><line x1="240" y1="206" x2="240" y2="214"/><polygon points="276.36,216.36 263.64,216.36 263.64,203.64 276.36,203.64"/><polygon points="309.95,155.98 309.95,204.02 275.98,170.05 324.02,170.05 290.05,204.02 290.05,155.98 324.02,189.95 275.98,189.95"/><polygon points="304.21,169.84 310.16,175.79 310.16,184.21 304.21,190.16 295.79,190.16 289.84,184.21 289.84,175.79 295.79,169.84"/><line x1="326" y1="180" x2="334" y2="180"/><line x1="300" y1="206" x2="300" y2="214"/><polygon points="336.36,216.36 323.64,216.36 323.64,203.64 336.36,203.64"/><polygon points="369.95,155.98 369.95,204.02 335.98,170.05 384.02,170.05 350.05,204.02 350.05,155.98 384.02,189.95 335.98,189.95"/><polygon points="364.21,169.84 370.16,175.79 370.16,184.21 364.21,190.16 355.79,190.16 349.84,184.21 349.84,175.79 355.79,169.84"/><line x1="386" y1="180" x2="394" y2="180"/><line x1="360" y1="206" x2="360" y2="214"/><polygon points="396.36,216.36 383.64,216.36 383.64,203.64 396.36,203.64"/><polygon points="9.95,215.98 9.95,264.02 -24.02,230.05 24.02,230.05 -9.95,264.02 -9.95,215.98 24.02,249.95 -24.02,249.95"/><polygon points="4.21,229.84 10.16,235.79 10.16,244.21 4.21,250.16 -4.21,250.16 -10.16,244.21 -10.16,235.79 -4.21,229.84"/><line x1="26" y1="240" x2="34" y2="240"/><line x1="0" y1="266" x2="0" y2="274"/><polygon points="36.36,276.36 23.64,276.36 23.64,263.64 36.36,263.64"/><polygon points="69.95,215.98 69.95,264.02 35.98,230.05 84.02,230.05 50.05,264.02 50.05,215.98 84.02,249.95 35.98,249.95"/><polygon points="64.21,229.84 70.16,235.79 70.16,244.21 64.21,250.16 55.79,250.16 49.84,244.21 49.84,235.79 55.79,229.84"/><line x1="86" y1="240" x2="94" y2="240"/><line x1="60" y1="266" x2="60" y2="274"/><polygon points="96.36,276.36 83.64,276.36 83.64,263.64 96.36,263.64"/><polygon points="129.95,215.98 129.95,264.02 95.98,230.05 144.02,230.05 110.05,264.02 110.05,215.98 144.02,249.95 95.98,249.95"/><polygon points="124.21,229.84 130.16,235.79 130.16,244.21 124.21,250.16 115.79,250.16 109.84,244.21 109.84,235.79 115.79,229.84"/><line x1="146" y1="240" x2="154" y2="240"/><line x1="120" y1="266" x2="120" y2="274"/><polygon points="156.36,276.36 143.64,276.36 143.64,263.64 156.36,263.64"/><polygon points="189.95,215.98 189.95,264.02 155.98,230.05 204.02,230.05 170.05,264.02 170.05,215.98 204.02,249.95 155.98,249.95"/><polygon points="184.21,229.84 190.16,235.79 190.16,244.21 184.21,250.16 175.79,250.16 169.84,244.21 169.84,235.79 175.79,229.84"/><line x1="206" y1="240" x2="214" y2="240"/><line x1="180" y1="266" x2="180" y2="274"/><polygon points="216.36,276.36 203.64,276.36 203.64,263.64 216.36,263.64"/><polygon points="249.95,215.98 249.95,264.02 215.98,230.05 264.02,230.05 230.05,264.02 230.05,215.98 264.02,249.95 215.98,249.95"/><polygon points="244.21,229.84 250.16,235.79 250.16,244.21 244.21,250.16 235.79,250.16 229.84,244.21 229.84,235.79 235.79,229.84"/><line x1="266" y1="240" x2="274" y2="240"/><line x1="240" y1="266" x2="240" y2="274"/><polygon points="276.36,276.36 263.64,276.36 263.64,263.64 276.36,263.64"/><polygon points="309.95,215.98 309.95,264.02 275.98,230.05 324.02,230.05 290.05,264.02 290.05,215.98 324.02,249.95 275.98,249.95"/><polygon points="304.21,229.84 310.16,235.79 310.16,244.21 304.21,250.16 295.79,250.16 289.84,244.21 289.84,235.79 295.79,229.84"/><line x1="326" y1="240" x2="334" y2="240"/><line x1="300" y1="266" x2="300" y2="274"/><polygon points="336.36,276.36 323.64,276.36 323.64,263.64 336.36,263.64"/><polygon points="369.95,215.98 369.95,264.02 335.98,230.05 384.02,230.05 350.05,264.02 350.05,215.98 384.02,249.95 335.98,249.95"/><polygon points="364.21,229.84 370.16,235.79 370.16,244.21 364.21,250.16 355.79,250.16 349.84,244.21 349.84,235.79 355.79,229.84"/><line x1="386" y1="240" x2="394" y2="240"/><line x1="360" y1="266" x2="360" y2="274"/><polygon points="396.36,276.36 383.64,276.36 383.64,263.64 396.36,263.64"/><polygon points="9.95,275.98 9.95,324.02 -24.02,290.05 24.02,290.05 -9.95,324.02 -9.95,275.98 24.02,309.95 -24.02,309.95"/><polygon points="4.21,289.84 10.16,295.79 10.16,304.21 4.21,310.16 -4.21,310.16 -10.16,304.21 -10.16,295.79 -4.21,289.84"/><line x1="26" y1="300" x2="34" y2="300"/><line x1="0" y1="326" x2="0" y2="334"/><polygon points="36.36,336.36 23.64,336.36 23.64,323.64 36.36,323.64"/><polygon points="69.95,275.98 69.95,324.02 35.98,290.05 84.02,290.05 50.05,324.02 50.05,275.98 84.02,309.95 35.98,309.95"/><polygon points="64.21,289.84 70.16,295.79 70.16,304.21 64.21,310.16 55.79,310.16 49.84,304.21 49.84,295.79 55.79,289.84"/><line x1="86" y1="300" x2="94" y2="300"/><line x1="60" y1="326" x2="60" y2="334"/><polygon points="96.36,336.36 83.64,336.36 83.64,323.64 96.36,323.64"/><polygon points="129.95,275.98 129.95,324.02 95.98,290.05 144.02,290.05 110.05,324.02 110.05,275.98 144.02,309.95 95.98,309.95"/><polygon points="124.21,289.84 130.16,295.79 130.16,304.21 124.21,310.16 115.79,310.16 109.84,304.21 109.84,295.79 115.79,289.84"/><line x1="146" y1="300" x2="154" y2="300"/><line x1="120" y1="326" x2="120" y2="334"/><polygon points="156.36,336.36 143.64,336.36 143.64,323.64 156.36,323.64"/><polygon points="189.95,275.98 189.95,324.02 155.98,290.05 204.02,290.05 170.05,324.02 170.05,275.98 204.02,309.95 155.98,309.95"/><polygon points="184.21,289.84 190.16,295.79 190.16,304.21 184.21,310.16 175.79,310.16 169.84,304.21 169.84,295.79 175.79,289.84"/><line x1="206" y1="300" x2="214" y2="300"/><line x1="180" y1="326" x2="180" y2="334"/><polygon points="216.36,336.36 203.64,336.36 203.64,323.64 216.36,323.64"/><polygon points="249.95,275.98 249.95,324.02 215.98,290.05 264.02,290.05 230.05,324.02 230.05,275.98 264.02,309.95 215.98,309.95"/><polygon points="244.21,289.84 250.16,295.79 250.16,304.21 244.21,310.16 235.79,310.16 229.84,304.21 229.84,295.79 235.79,289.84"/><line x1="266" y1="300" x2="274" y2="300"/><line x1="240" y1="326" x2="240" y2="334"/><polygon points="276.36,336.36 263.64,336.36 263.64,323.64 276.36,323.64"/><polygon points="309.95,275.98 309.95,324.02 275.98,290.05 324.02,290.05 290.05,324.02 290.05,275.98 324.02,309.95 275.98,309.95"/><polygon points="304.21,289.84 310.16,295.79 310.16,304.21 304.21,310.16 295.79,310.16 289.84,304.21 289.84,295.79 295.79,289.84"/><line x1="326" y1="300" x2="334" y2="300"/><line x1="300" y1="326" x2="300" y2="334"/><polygon points="336.36,336.36 323.64,336.36 323.64,323.64 336.36,323.64"/><polygon points="369.95,275.98 369.95,324.02 335.98,290.05 384.02,290.05 350.05,324.02 350.05,275.98 384.02,309.95 335.98,309.95"/><polygon points="364.21,289.84 370.16,295.79 370.16,304.21 364.21,310.16 355.79,310.16 349.84,304.21 349.84,295.79 355.79,289.84"/><line x1="386" y1="300" x2="394" y2="300"/><line x1="360" y1="326" x2="360" y2="334"/><polygon points="396.36,336.36 383.64,336.36 383.64,323.64 396.36,323.64"/><polygon points="9.95,335.98 9.95,384.02 -24.02,350.05 24.02,350.05 -9.95,384.02 -9.95,335.98 24.02,369.95 -24.02,369.95"/><polygon points="4.21,349.84 10.16,355.79 10.16,364.21 4.21,370.16 -4.21,370.16 -10.16,364.21 -10.16,355.79 -4.21,349.84"/><line x1="26" y1="360" x2="34" y2="360"/><line x1="0" y1="386" x2="0" y2="394"/><polygon points="36.36,396.36 23.64,396.36 23.64,383.64 36.36,383.64"/><polygon points="69.95,335.98 69.95,384.02 35.98,350.05 84.02,350.05 50.05,384.02 50.05,335.98 84.02,369.95 35.98,369.95"/><polygon points="64.21,349.84 70.16,355.79 70.16,364.21 64.21,370.16 55.79,370.16 49.84,364.21 49.84,355.79 55.79,349.84"/><line x1="86" y1="360" x2="94" y2="360"/><line x1="60" y1="386" x2="60" y2="394"/><polygon points="96.36,396.36 83.64,396.36 83.64,383.64 96.36,383.64"/><polygon points="129.95,335.98 129.95,384.02 95.98,350.05 144.02,350.05 110.05,384.02 110.05,335.98 144.02,369.95 95.98,369.95"/><polygon points="124.21,349.84 130.16,355.79 130.16,364.21 124.21,370.16 115.79,370.16 109.84,364.21 109.84,355.79 115.79,349.84"/><line x1="146" y1="360" x2="154" y2="360"/><line x1="120" y1="386" x2="120" y2="394"/><polygon points="156.36,396.36 143.64,396.36 143.64,383.64 156.36,383.64"/><polygon points="189.95,335.98 189.95,384.02 155.98,350.05 204.02,350.05 170.05,384.02 170.05,335.98 204.02,369.95 155.98,369.95"/><polygon points="184.21,349.84 190.16,355.79 190.16,364.21 184.21,370.16 175.79,370.16 169.84,364.21 169.84,355.79 175.79,349.84"/><line x1="206" y1="360" x2="214" y2="360"/><line x1="180" y1="386" x2="180" y2="394"/><polygon points="216.36,396.36 203.64,396.36 203.64,383.64 216.36,383.64"/><polygon points="249.95,335.98 249.95,384.02 215.98,350.05 264.02,350.05 230.05,384.02 230.05,335.98 264.02,369.95 215.98,369.95"/><polygon points="244.21,349.84 250.16,355.79 250.16,364.21 244.21,370.16 235.79,370.16 229.84,364.21 229.84,355.79 235.79,349.84"/><line x1="266" y1="360" x2="274" y2="360"/><line x1="240" y1="386" x2="240" y2="394"/><polygon points="276.36,396.36 263.64,396.36 263.64,383.64 276.36,383.64"/><polygon points="309.95,335.98 309.95,384.02 275.98,350.05 324.02,350.05 290.05,384.02 290.05,335.98 324.02,369.95 275.98,369.95"/><polygon points="304.21,349.84 310.16,355.79 310.16,364.21 304.21,370.16 295.79,370.16 289.84,364.21 289.84,355.79 295.79,349.84"/><line x1="326" y1="360" x2="334" y2="360"/><line x1="300" y1="386" x2="300" y2="394"/><polygon points="336.36,396.36 323.64,396.36 323.64,383.64 336.36,383.64"/><polygon points="369.95,335.98 369.95,384.02 335.98,350.05 384.02,350.05 350.05,384.02 350.05,335.98 384.02,369.95 335.98,369.95"/><polygon points="364.21,349.84 370.16,355.79 370.16,364.21 364.21,370.16 355.79,370.16 349.84,364.21 349.84,355.79 355.79,349.84"/><line x1="386" y1="360" x2="394" y2="360"/><line x1="360" y1="386" x2="360" y2="394"/><polygon points="396.36,396.36 383.64,396.36 383.64,383.64 396.36,383.64"/><polygon points="9.95,395.98 9.95,444.02 -24.02,410.05 24.02,410.05 -9.95,444.02 -9.95,395.98 24.02,429.95 -24.02,429.95"/><polygon points="4.21,409.84 10.16,415.79 10.16,424.21 4.21,430.16 -4.21,430.16 -10.16,424.21 -10.16,415.79 -4.21,409.84"/><line x1="26" y1="420" x2="34" y2="420"/><line x1="0" y1="446" x2="0" y2="454"/><polygon points="36.36,456.36 23.64,456.36 23.64,443.64 36.36,443.64"/><polygon points="69.95,395.98 69.95,444.02 35.98,410.05 84.02,410.05 50.05,444.02 50.05,395.98 84.02,429.95 35.98,429.95"/><polygon points="64.21,409.84 70.16,415.79 70.16,424.21 64.21,430.16 55.79,430.16 49.84,424.21 49.84,415.79 55.79,409.84"/><line x1="86" y1="420" x2="94" y2="420"/><line x1="60" y1="446" x2="60" y2="454"/><polygon points="96.36,456.36 83.64,456.36 83.64,443.64 96.36,443.64"/><polygon points="129.95,395.98 129.95,444.02 95.98,410.05 144.02,410.05 110.05,444.02 110.05,395.98 144.02,429.95 95.98,429.95"/><polygon points="124.21,409.84 130.16,415.79 130.16,424.21 124.21,430.16 115.79,430.16 109.84,424.21 109.84,415.79 115.79,409.84"/><line x1="146" y1="420" x2="154" y2="420"/><line x1="120" y1="446" x2="120" y2="454"/><polygon points="156.36,456.36 143.64,456.36 143.64,443.64 156.36,443.64"/><polygon points="189.95,395.98 189.95,444.02 155.98,410.05 204.02,410.05 170.05,444.02 170.05,395.98 204.02,429.95 155.98,429.95"/><polygon points="184.21,409.84 190.16,415.79 190.16,424.21 184.21,430.16 175.79,430.16 169.84,424.21 169.84,415.79 175.79,409.84"/><line x1="206" y1="420" x2="214" y2="420"/><line x1="180" y1="446" x2="180" y2="454"/><polygon points="216.36,456.36 203.64,456.36 203.64,443.64 216.36,443.64"/><polygon points="249.95,395.98 249.95,444.02 215.98,410.05 264.02,410.05 230.05,444.02 230.05,395.98 264.02,429.95 215.98,429.95"/><polygon points="244.21,409.84 250.16,415.79 250.16,424.21 244.21,430.16 235.79,430.16 229.84,424.21 229.84,415.79 235.79,409.84"/><line x1="266" y1="420" x2="274" y2="420"/><line x1="240" y1="446" x2="240" y2="454"/><polygon points="276.36,456.36 263.64,456.36 263.64,443.64 276.36,443.64"/><polygon points="309.95,395.98 309.95,444.02 275.98,410.05 324.02,410.05 290.05,444.02 290.05,395.98 324.02,429.95 275.98,429.95"/><polygon points="304.21,409.84 310.16,415.79 310.16,424.21 304.21,430.16 295.79,430.16 289.84,424.21 289.84,415.79 295.79,409.84"/><line x1="326" y1="420" x2="334" y2="420"/><line x1="300" y1="446" x2="300" y2="454"/><polygon points="336.36,456.36 323.64,456.36 323.64,443.64 336.36,443.64"/><polygon points="369.95,395.98 369.95,444.02 335.98,410.05 384.02,410.05 350.05,444.02 350.05,395.98 384.02,429.95 335.98,429.95"/><polygon points="364.21,409.84 370.16,415.79 370.16,424.21 364.21,430.16 355.79,430.16 349.84,424.21 349.84,415.79 355.79,409.84"/><line x1="386" y1="420" x2="394" y2="420"/><line x1="360" y1="446" x2="360" y2="454"/><polygon points="396.36,456.36 383.64,456.36 383.64,443.64 396.36,443.64"/><polygon points="9.95,455.98 9.95,504.02 -24.02,470.05 24.02,470.05 -9.95,504.02 -9.95,455.98 24.02,489.95 -24.02,489.95"/><polygon points="4.21,469.84 10.16,475.79 10.16,484.21 4.21,490.16 -4.21,490.16 -10.16,484.21 -10.16,475.79 -4.21,469.84"/><line x1="26" y1="480" x2="34" y2="480"/><line x1="0" y1="506" x2="0" y2="514"/><polygon points="36.36,516.36 23.64,516.36 23.64,503.64 36.36,503.64"/><polygon points="69.95,455.98 69.95,504.02 35.98,470.05 84.02,470.05 50.05,504.02 50.05,455.98 84.02,489.95 35.98,489.95"/><polygon points="64.21,469.84 70.16,475.79 70.16,484.21 64.21,490.16 55.79,490.16 49.84,484.21 49.84,475.79 55.79,469.84"/><line x1="86" y1="480" x2="94" y2="480"/><line x1="60" y1="506" x2="60" y2="514"/><polygon points="96.36,516.36 83.64,516.36 83.64,503.64 96.36,503.64"/><polygon points="129.95,455.98 129.95,504.02 95.98,470.05 144.02,470.05 110.05,504.02 110.05,455.98 144.02,489.95 95.98,489.95"/><polygon points="124.21,469.84 130.16,475.79 130.16,484.21 124.21,490.16 115.79,490.16 109.84,484.21 109.84,475.79 115.79,469.84"/><line x1="146" y1="480" x2="154" y2="480"/><line x1="120" y1="506" x2="120" y2="514"/><polygon points="156.36,516.36 143.64,516.36 143.64,503.64 156.36,503.64"/><polygon points="189.95,455.98 189.95,504.02 155.98,470.05 204.02,470.05 170.05,504.02 170.05,455.98 204.02,489.95 155.98,489.95"/><polygon points="184.21,469.84 190.16,475.79 190.16,484.21 184.21,490.16 175.79,490.16 169.84,484.21 169.84,475.79 175.79,469.84"/><line x1="206" y1="480" x2="214" y2="480"/><line x1="180" y1="506" x2="180" y2="514"/><polygon points="216.36,516.36 203.64,516.36 203.64,503.64 216.36,503.64"/><polygon points="249.95,455.98 249.95,504.02 215.98,470.05 264.02,470.05 230.05,504.02 230.05,455.98 264.02,489.95 215.98,489.95"/><polygon points="244.21,469.84 250.16,475.79 250.16,484.21 244.21,490.16 235.79,490.16 229.84,484.21 229.84,475.79 235.79,469.84"/><line x1="266" y1="480" x2="274" y2="480"/><line x1="240" y1="506" x2="240" y2="514"/><polygon points="276.36,516.36 263.64,516.36 263.64,503.64 276.36,503.64"/><polygon points="309.95,455.98 309.95,504.02 275.98,470.05 324.02,470.05 290.05,504.02 290.05,455.98 324.02,489.95 275.98,489.95"/><polygon points="304.21,469.84 310.16,475.79 310.16,484.21 304.21,490.16 295.79,490.16 289.84,484.21 289.84,475.79 295.79,469.84"/><line x1="326" y1="480" x2="334" y2="480"/><line x1="300" y1="506" x2="300" y2="514"/><polygon points="336.36,516.36 323.64,516.36 323.64,503.64 336.36,503.64"/><polygon points="369.95,455.98 369.95,504.02 335.98,470.05 384.02,470.05 350.05,504.02 350.05,455.98 384.02,489.95 335.98,489.95"/><polygon points="364.21,469.84 370.16,475.79 370.16,484.21 364.21,490.16 355.79,490.16 349.84,484.21 349.84,475.79 355.79,469.84"/><line x1="386" y1="480" x2="394" y2="480"/><line x1="360" y1="506" x2="360" y2="514"/><polygon points="396.36,516.36 383.64,516.36 383.64,503.64 396.36,503.64"/><polygon points="9.95,515.98 9.95,564.02 -24.02,530.05 24.02,530.05 -9.95,564.02 -9.95,515.98 24.02,549.95 -24.02,549.95"/><polygon points="4.21,529.84 10.16,535.79 10.16,544.21 4.21,550.16 -4.21,550.16 -10.16,544.21 -10.16,535.79 -4.21,529.84"/><line x1="26" y1="540" x2="34" y2="540"/><line x1="0" y1="566" x2="0" y2="574"/><polygon points="36.36,576.36 23.64,576.36 23.64,563.64 36.36,563.64"/><polygon points="69.95,515.98 69.95,564.02 35.98,530.05 84.02,530.05 50.05,564.02 50.05,515.98 84.02,549.95 35.98,549.95"/><polygon points="64.21,529.84 70.16,535.79 70.16,544.21 64.21,550.16 55.79,550.16 49.84,544.21 49.84,535.79 55.79,529.84"/><line x1="86" y1="540" x2="94" y2="540"/><line x1="60" y1="566" x2="60" y2="574"/><polygon points="96.36,576.36 83.64,576.36 83.64,563.64 96.36,563.64"/><polygon points="129.95,515.98 129.95,564.02 95.98,530.05 144.02,530.05 110.05,564.02 110.05,515.98 144.02,549.95 95.98,549.95"/><polygon points="124.21,529.84 130.16,535.79 130.16,544.21 124.21,550.16 115.79,550.16 109.84,544.21 109.84,535.79 115.79,529.84"/><line x1="146" y1="540" x2="154" y2="540"/><line x1="120" y1="566" x2="120" y2="574"/><polygon points="156.36,576.36 143.64,576.36 143.64,563.64 156.36,563.64"/><polygon points="189.95,515.98 189.95,564.02 155.98,530.05 204.02,530.05 170.05,564.02 170.05,515.98 204.02,549.95 155.98,549.95"/><polygon points="184.21,529.84 190.16,535.79 190.16,544.21 184.21,550.16 175.79,550.16 169.84,544.21 169.84,535.79 175.79,529.84"/><line x1="206" y1="540" x2="214" y2="540"/><line x1="180" y1="566" x2="180" y2="574"/><polygon points="216.36,576.36 203.64,576.36 203.64,563.64 216.36,563.64"/><polygon points="249.95,515.98 249.95,564.02 215.98,530.05 264.02,530.05 230.05,564.02 230.05,515.98 264.02,549.95 215.98,549.95"/><polygon points="244.21,529.84 250.16,535.79 250.16,544.21 244.21,550.16 235.79,550.16 229.84,544.21 229.84,535.79 235.79,529.84"/><line x1="266" y1="540" x2="274" y2="540"/><line x1="240" y1="566" x2="240" y2="574"/><polygon points="276.36,576.36 263.64,576.36 263.64,563.64 276.36,563.64"/><polygon points="309.95,515.98 309.95,564.02 275.98,530.05 324.02,530.05 290.05,564.02 290.05,515.98 324.02,549.95 275.98,549.95"/><polygon points="304.21,529.84 310.16,535.79 310.16,544.21 304.21,550.16 295.79,550.16 289.84,544.21 289.84,535.79 295.79,529.84"/><line x1="326" y1="540" x2="334" y2="540"/><line x1="300" y1="566" x2="300" y2="574"/><polygon points="336.36,576.36 323.64,576.36 323.64,563.64 336.36,563.64"/><polygon points="369.95,515.98 369.95,564.02 335.98,530.05 384.02,530.05 350.05,564.02 350.05,515.98 384.02,549.95 335.98,549.95"/><polygon points="364.21,529.84 370.16,535.79 370.16,544.21 364.21,550.16 355.79,550.16 349.84,544.21 349.84,535.79 355.79,529.84"/><line x1="386" y1="540" x2="394" y2="540"/><line x1="360" y1="566" x2="360" y2="574"/><polygon points="396.36,576.36 383.64,576.36 383.64,563.64 396.36,563.64"/><polygon points="9.95,575.98 9.95,624.02 -24.02,590.05 24.02,590.05 -9.95,624.02 -9.95,575.98 24.02,609.95 -24.02,609.95"/><polygon points="4.21,589.84 10.16,595.79 10.16,604.21 4.21,610.16 -4.21,610.16 -10.16,604.21 -10.16,595.79 -4.21,589.84"/><line x1="26" y1="600" x2="34" y2="600"/><line x1="0" y1="626" x2="0" y2="634"/><polygon points="36.36,636.36 23.64,636.36 23.64,623.64 36.36,623.64"/><polygon points="69.95,575.98 69.95,624.02 35.98,590.05 84.02,590.05 50.05,624.02 50.05,575.98 84.02,609.95 35.98,609.95"/><polygon points="64.21,589.84 70.16,595.79 70.16,604.21 64.21,610.16 55.79,610.16 49.84,604.21 49.84,595.79 55.79,589.84"/><line x1="86" y1="600" x2="94" y2="600"/><line x1="60" y1="626" x2="60" y2="634"/><polygon points="96.36,636.36 83.64,636.36 83.64,623.64 96.36,623.64"/><polygon points="129.95,575.98 129.95,624.02 95.98,590.05 144.02,590.05 110.05,624.02 110.05,575.98 144.02,609.95 95.98,609.95"/><polygon points="124.21,589.84 130.16,595.79 130.16,604.21 124.21,610.16 115.79,610.16 109.84,604.21 109.84,595.79 115.79,589.84"/><line x1="146" y1="600" x2="154" y2="600"/><line x1="120" y1="626" x2="120" y2="634"/><polygon points="156.36,636.36 143.64,636.36 143.64,623.64 156.36,623.64"/><polygon points="189.95,575.98 189.95,624.02 155.98,590.05 204.02,590.05 170.05,624.02 170.05,575.98 204.02,609.95 155.98,609.95"/><polygon points="184.21,589.84 190.16,595.79 190.16,604.21 184.21,610.16 175.79,610.16 169.84,604.21 169.84,595.79 175.79,589.84"/><line x1="206" y1="600" x2="214" y2="600"/><line x1="180" y1="626" x2="180" y2="634"/><polygon points="216.36,636.36 203.64,636.36 203.64,623.64 216.36,623.64"/><polygon points="249.95,575.98 249.95,624.02 215.98,590.05 264.02,590.05 230.05,624.02 230.05,575.98 264.02,609.95 215.98,609.95"/><polygon points="244.21,589.84 250.16,595.79 250.16,604.21 244.21,610.16 235.79,610.16 229.84,604.21 229.84,595.79 235.79,589.84"/><line x1="266" y1="600" x2="274" y2="600"/><line x1="240" y1="626" x2="240" y2="634"/><polygon points="276.36,636.36 263.64,636.36 263.64,623.64 276.36,623.64"/><polygon points="309.95,575.98 309.95,624.02 275.98,590.05 324.02,590.05 290.05,624.02 290.05,575.98 324.02,609.95 275.98,609.95"/><polygon points="304.21,589.84 310.16,595.79 310.16,604.21 304.21,610.16 295.79,610.16 289.84,604.21 289.84,595.79 295.79,589.84"/><line x1="326" y1="600" x2="334" y2="600"/><line x1="300" y1="626" x2="300" y2="634"/><polygon points="336.36,636.36 323.64,636.36 323.64,623.64 336.36,623.64"/><polygon points="369.95,575.98 369.95,624.02 335.98,590.05 384.02,590.05 350.05,624.02 350.05,575.98 384.02,609.95 335.98,609.95"/><polygon points="364.21,589.84 370.16,595.79 370.16,604.21 364.21,610.16 355.79,610.16 349.84,604.21 349.84,595.79 355.79,589.84"/><line x1="386" y1="600" x2="394" y2="600"/><line x1="360" y1="626" x2="360" y2="634"/><polygon points="396.36,636.36 383.64,636.36 383.64,623.64 396.36,623.64"/><polygon points="9.95,635.98 9.95,684.02 -24.02,650.05 24.02,650.05 -9.95,684.02 -9.95,635.98 24.02,669.95 -24.02,669.95"/><polygon points="4.21,649.84 10.16,655.79 10.16,664.21 4.21,670.16 -4.21,670.16 -10.16,664.21 -10.16,655.79 -4.21,649.84"/><line x1="26" y1="660" x2="34" y2="660"/><line x1="0" y1="686" x2="0" y2="694"/><polygon points="36.36,696.36 23.64,696.36 23.64,683.64 36.36,683.64"/><polygon points="69.95,635.98 69.95,684.02 35.98,650.05 84.02,650.05 50.05,684.02 50.05,635.98 84.02,669.95 35.98,669.95"/><polygon points="64.21,649.84 70.16,655.79 70.16,664.21 64.21,670.16 55.79,670.16 49.84,664.21 49.84,655.79 55.79,649.84"/><line x1="86" y1="660" x2="94" y2="660"/><line x1="60" y1="686" x2="60" y2="694"/><polygon points="96.36,696.36 83.64,696.36 83.64,683.64 96.36,683.64"/><polygon points="129.95,635.98 129.95,684.02 95.98,650.05 144.02,650.05 110.05,684.02 110.05,635.98 144.02,669.95 95.98,669.95"/><polygon points="124.21,649.84 130.16,655.79 130.16,664.21 124.21,670.16 115.79,670.16 109.84,664.21 109.84,655.79 115.79,649.84"/><line x1="146" y1="660" x2="154" y2="660"/><line x1="120" y1="686" x2="120" y2="694"/><polygon points="156.36,696.36 143.64,696.36 143.64,683.64 156.36,683.64"/><polygon points="189.95,635.98 189.95,684.02 155.98,650.05 204.02,650.05 170.05,684.02 170.05,635.98 204.02,669.95 155.98,669.95"/><polygon points="184.21,649.84 190.16,655.79 190.16,664.21 184.21,670.16 175.79,670.16 169.84,664.21 169.84,655.79 175.79,649.84"/><line x1="206" y1="660" x2="214" y2="660"/><line x1="180" y1="686" x2="180" y2="694"/><polygon points="216.36,696.36 203.64,696.36 203.64,683.64 216.36,683.64"/><polygon points="249.95,635.98 249.95,684.02 215.98,650.05 264.02,650.05 230.05,684.02 230.05,635.98 264.02,669.95 215.98,669.95"/><polygon points="244.21,649.84 250.16,655.79 250.16,664.21 244.21,670.16 235.79,670.16 229.84,664.21 229.84,655.79 235.79,649.84"/><line x1="266" y1="660" x2="274" y2="660"/><line x1="240" y1="686" x2="240" y2="694"/><polygon points="276.36,696.36 263.64,696.36 263.64,683.64 276.36,683.64"/><polygon points="309.95,635.98 309.95,684.02 275.98,650.05 324.02,650.05 290.05,684.02 290.05,635.98 324.02,669.95 275.98,669.95"/><polygon points="304.21,649.84 310.16,655.79 310.16,664.21 304.21,670.16 295.79,670.16 289.84,664.21 289.84,655.79 295.79,649.84"/><line x1="326" y1="660" x2="334" y2="660"/><line x1="300" y1="686" x2="300" y2="694"/><polygon points="336.36,696.36 323.64,696.36 323.64,683.64 336.36,683.64"/><polygon points="369.95,635.98 369.95,684.02 335.98,650.05 384.02,650.05 350.05,684.02 350.05,635.98 384.02,669.95 335.98,669.95"/><polygon points="364.21,649.84 370.16,655.79 370.16,664.21 364.21,670.16 355.79,670.16 349.84,664.21 349.84,655.79 355.79,649.84"/><line x1="386" y1="660" x2="394" y2="660"/><line x1="360" y1="686" x2="360" y2="694"/><polygon points="396.36,696.36 383.64,696.36 383.64,683.64 396.36,683.64"/><polygon points="9.95,695.98 9.95,744.02 -24.02,710.05 24.02,710.05 -9.95,744.02 -9.95,695.98 24.02,729.95 -24.02,729.95"/><polygon points="4.21,709.84 10.16,715.79 10.16,724.21 4.21,730.16 -4.21,730.16 -10.16,724.21 -10.16,715.79 -4.21,709.84"/><line x1="26" y1="720" x2="34" y2="720"/><line x1="0" y1="746" x2="0" y2="754"/><polygon points="36.36,756.36 23.64,756.36 23.64,743.64 36.36,743.64"/><polygon points="69.95,695.98 69.95,744.02 35.98,710.05 84.02,710.05 50.05,744.02 50.05,695.98 84.02,729.95 35.98,729.95"/><polygon points="64.21,709.84 70.16,715.79 70.16,724.21 64.21,730.16 55.79,730.16 49.84,724.21 49.84,715.79 55.79,709.84"/><line x1="86" y1="720" x2="94" y2="720"/><line x1="60" y1="746" x2="60" y2="754"/><polygon points="96.36,756.36 83.64,756.36 83.64,743.64 96.36,743.64"/><polygon points="129.95,695.98 129.95,744.02 95.98,710.05 144.02,710.05 110.05,744.02 110.05,695.98 144.02,729.95 95.98,729.95"/><polygon points="124.21,709.84 130.16,715.79 130.16,724.21 124.21,730.16 115.79,730.16 109.84,724.21 109.84,715.79 115.79,709.84"/><line x1="146" y1="720" x2="154" y2="720"/><line x1="120" y1="746" x2="120" y2="754"/><polygon points="156.36,756.36 143.64,756.36 143.64,743.64 156.36,743.64"/><polygon points="189.95,695.98 189.95,744.02 155.98,710.05 204.02,710.05 170.05,744.02 170.05,695.98 204.02,729.95 155.98,729.95"/><polygon points="184.21,709.84 190.16,715.79 190.16,724.21 184.21,730.16 175.79,730.16 169.84,724.21 169.84,715.79 175.79,709.84"/><line x1="206" y1="720" x2="214" y2="720"/><line x1="180" y1="746" x2="180" y2="754"/><polygon points="216.36,756.36 203.64,756.36 203.64,743.64 216.36,743.64"/><polygon points="249.95,695.98 249.95,744.02 215.98,710.05 264.02,710.05 230.05,744.02 230.05,695.98 264.02,729.95 215.98,729.95"/><polygon points="244.21,709.84 250.16,715.79 250.16,724.21 244.21,730.16 235.79,730.16 229.84,724.21 229.84,715.79 235.79,709.84"/><line x1="266" y1="720" x2="274" y2="720"/><line x1="240" y1="746" x2="240" y2="754"/><polygon points="276.36,756.36 263.64,756.36 263.64,743.64 276.36,743.64"/><polygon points="309.95,695.98 309.95,744.02 275.98,710.05 324.02,710.05 290.05,744.02 290.05,695.98 324.02,729.95 275.98,729.95"/><polygon points="304.21,709.84 310.16,715.79 310.16,724.21 304.21,730.16 295.79,730.16 289.84,724.21 289.84,715.79 295.79,709.84"/><line x1="326" y1="720" x2="334" y2="720"/><line x1="300" y1="746" x2="300" y2="754"/><polygon points="336.36,756.36 323.64,756.36 323.64,743.64 336.36,743.64"/><polygon points="369.95,695.98 369.95,744.02 335.98,710.05 384.02,710.05 350.05,744.02 350.05,695.98 384.02,729.95 335.98,729.95"/><polygon points="364.21,709.84 370.16,715.79 370.16,724.21 364.21,730.16 355.79,730.16 349.84,724.21 349.84,715.79 355.79,709.84"/><line x1="386" y1="720" x2="394" y2="720"/><line x1="360" y1="746" x2="360" y2="754"/><polygon points="396.36,756.36 383.64,756.36 383.64,743.64 396.36,743.64"/></g></svg>
